<svg width="512" height="200" viewBox="0 0 512 200" fill="none" xmlns="http://www.w3.org/2000/svg">
<path d="M91.52 99.425C96.7083 96.1823 103.292 96.1823 108.48 99.425L145.791 122.745C155.818 129.011 155.818 143.614 145.791 149.88L108.48 173.2C103.292 176.443 96.7083 176.443 91.52 173.2L54.2088 149.88C44.1821 143.614 44.1821 129.011 54.2088 122.745L91.52 99.425Z" fill="#FFBC03"/>
<path d="M91.52 76.925C96.7083 73.6823 103.292 73.6823 108.48 76.925L145.791 100.245C155.818 106.511 155.818 121.114 145.791 127.38L108.48 150.7C103.292 153.943 96.7083 153.943 91.52 150.7L54.2088 127.38C44.1821 121.114 44.1821 106.511 54.2088 100.245L91.52 76.925Z" fill="#F6414A"/>
<path d="M91.52 26.3C96.7083 23.0573 103.292 23.0573 108.48 26.3L168.291 63.682C178.318 69.9487 178.318 84.5513 168.291 90.818L108.48 128.2C103.292 131.443 96.7083 131.443 91.52 128.2L31.7087 90.818C21.6821 84.5513 21.6821 69.9487 31.7088 63.682L91.52 26.3Z" fill="#282828"/>
<path d="M238.57 94V49.668H224.543V42.7422H260.402V49.668H246.375V94H238.57ZM277.137 94V90.7656H276.996C276.316 92.0078 275.262 92.9219 273.832 93.5078C272.426 94.1172 270.48 94.4219 267.996 94.4219C263.918 94.375 260.777 93.2969 258.574 91.1875C256.254 89.125 255.094 86.4883 255.094 83.2773C255.094 80.207 256.102 77.6641 258.117 75.6484C260.133 73.5859 263.086 72.5312 266.977 72.4844H277.137V68.6523C277.184 65.4414 274.688 63.8828 269.648 63.9766C267.82 63.9766 266.379 64.1641 265.324 64.5391C264.223 64.9844 263.355 65.7344 262.723 66.7891L256.957 62.3945C259.746 58.7383 263.859 56.957 269.297 57.0508C273.891 57.0039 277.559 57.8711 280.301 59.6523C283.043 61.4805 284.438 64.6211 284.484 69.0742V94H277.137ZM277.137 81.168V78.5312H268.348C264.082 78.625 261.973 80.0898 262.02 82.9258C262.02 84.168 262.57 85.2227 263.672 86.0898C264.727 87.0508 266.473 87.5312 268.91 87.5312C271.98 87.5781 274.148 87.2148 275.414 86.4414C276.562 85.668 277.137 83.9102 277.137 81.168ZM294.188 94V57.5078H301.535V94H294.188ZM294.188 50.0898V42.7422H301.535V50.0898H294.188ZM328.57 73.1172V65.7695H346.781V76.2109C346.688 81.3438 344.93 85.6445 341.508 89.1133C338.062 92.5586 333.727 94.3281 328.5 94.4219C324.469 94.3281 321.105 93.3438 318.41 91.4688C315.668 89.6641 313.676 87.5781 312.434 85.2109C312.059 84.4375 311.719 83.6992 311.414 82.9961C311.133 82.2695 310.898 81.3555 310.711 80.2539C310.359 78.1914 310.184 74.2305 310.184 68.3711C310.184 62.418 310.359 58.4336 310.711 56.418C311.086 54.4023 311.66 52.7734 312.434 51.5312C313.676 49.1641 315.668 47.0547 318.41 45.2031C321.105 43.3281 324.469 42.3672 328.5 42.3203C333.445 42.3672 337.477 43.832 340.594 46.7148C343.711 49.6211 345.68 53.2188 346.5 57.5078H338.273C337.641 55.4453 336.492 53.6875 334.828 52.2344C333.094 50.8516 330.984 50.1367 328.5 50.0898C326.672 50.1367 325.102 50.5 323.789 51.1797C322.453 51.8828 321.375 52.7617 320.555 53.8164C319.547 54.918 318.879 56.3359 318.551 58.0703C318.176 59.8984 317.988 63.332 317.988 68.3711C317.988 73.4102 318.176 76.8203 318.551 78.6016C318.879 80.3828 319.547 81.8242 320.555 82.9258C321.375 83.9805 322.453 84.8359 323.789 85.4922C325.102 86.2656 326.672 86.6523 328.5 86.6523C331.523 86.6523 334.02 85.6211 335.988 83.5586C337.957 81.5898 338.965 79 339.012 75.7891V73.1172H328.57ZM383.52 78.5312H360.773C360.773 81.4609 361.617 83.6875 363.305 85.2109C364.875 86.7578 366.938 87.5312 369.492 87.5312C372.469 87.5312 375.129 86.3477 377.473 83.9805L382.781 88.5156C379.055 92.5 374.672 94.4688 369.633 94.4219C367.711 94.4219 365.836 94.1406 364.008 93.5781C363.094 93.2734 362.203 92.8633 361.336 92.3477C360.422 91.9023 359.566 91.3516 358.77 90.6953C357.223 89.3359 355.969 87.4375 355.008 85C353.953 82.6562 353.426 79.6094 353.426 75.8594C353.426 72.25 353.883 69.25 354.797 66.8594C355.711 64.4219 356.883 62.5 358.312 61.0938C359.766 59.6641 361.395 58.6328 363.199 58C364.98 57.3672 366.738 57.0508 368.473 57.0508C372.645 57.0977 376.172 58.4688 379.055 61.1641C381.984 63.9062 383.473 67.6797 383.52 72.4844V78.5312ZM360.773 72.4844H376.172C376.078 69.6484 375.316 67.5039 373.887 66.0508C372.48 64.668 370.676 63.9766 368.473 63.9766C366.27 63.9766 364.465 64.668 363.059 66.0508C361.676 67.5039 360.914 69.6484 360.773 72.4844ZM391.219 94V57.5078H398.566V61.375H398.707C401.121 58.4922 404.285 57.0508 408.199 57.0508C411.129 57.0977 413.684 58.0352 415.863 59.8633L410.52 66.2266C408.973 65.0078 407.367 64.3984 405.703 64.3984C403.828 64.3984 402.223 65.0078 400.887 66.2266C399.387 67.4219 398.613 69.3555 398.566 72.0273V94H391.219Z" fill="black"/>
<path d="M234.56 159.256H261.008V164.824H234.56V159.256ZM231.728 146.104H264.224V167.224H258.032V151.576H237.584V167.272H231.728V146.104ZM251.936 129.688L256.4 126.664C260.816 130.792 266.576 136.744 269.12 140.824L264.224 144.376C261.92 140.296 256.4 134.104 251.936 129.688ZM230.144 142.888C229.856 141.736 228.896 138.856 228.224 137.32C229.568 137.032 230.672 136.12 232.256 134.584C233.936 133.048 239.168 127.192 242.48 121.432L248.288 123.928C244.016 130.072 238.544 135.928 233.552 139.96V140.152C233.552 140.152 230.144 141.832 230.144 142.888ZM230.144 142.888L230.048 138.376L233.936 136.36L263.456 135.4C263.504 136.984 263.744 139.336 263.984 140.584C236.336 141.928 232.736 141.976 230.144 142.888ZM288.032 125.656H318.272V130.216H288.032V125.656ZM287.456 147.64H318.512V152.2H287.456V147.64ZM299.312 153.064L303.536 151.672C304.592 153.4 305.984 155.848 306.656 157.288L302.192 158.968C301.616 157.432 300.32 154.888 299.312 153.064ZM294.032 155.224H299.072V161.08C299.072 162.232 299.312 162.424 300.896 162.424C301.568 162.424 304.688 162.424 305.6 162.424C306.944 162.424 307.184 161.896 307.376 158.392C308.336 159.064 310.4 159.784 311.744 160.072C311.216 165.352 309.92 166.696 306.128 166.696C305.12 166.696 301.232 166.696 300.176 166.696C295.184 166.696 294.032 165.352 294.032 161.128V155.224ZM288.944 154.168L293.312 155.8C292.448 159.016 291.248 162.952 289.472 165.592L285.152 163.096C286.832 160.84 288.224 157.192 288.944 154.168ZM309.632 155.704L313.808 153.88C315.92 156.664 318.128 160.408 318.944 163L314.432 165.016C313.76 162.472 311.744 158.584 309.632 155.704ZM308.72 136.696V141.4H312.176V136.696H308.72ZM301.424 136.696V141.4H304.832V136.696H301.424ZM294.224 136.696V141.4H297.536V136.696H294.224ZM289.808 132.664H316.832V145.432H289.808V132.664ZM300.368 122.104L306.416 122.248C305.888 126.616 305.264 131.176 304.688 134.104L299.312 133.768C299.84 130.552 300.272 125.656 300.368 122.104ZM283.376 132.808L288.512 134.632C285.392 141.16 280.496 148.36 276.032 152.92C275.456 151.672 273.824 148.792 272.864 147.496C276.752 143.896 280.832 138.232 283.376 132.808ZM282.608 122.248L287.744 124.408C284.576 128.968 279.872 134.296 275.888 137.8C275.312 136.552 274.016 134.248 273.2 133.048C276.512 130.264 280.544 125.656 282.608 122.248ZM279.488 143.224L282.176 140.488L284.864 141.352V167.368H279.488V143.224ZM327.584 146.296H361.088V167.128H354.944V150.856H333.44V167.32H327.584V146.296ZM330.512 153.88H357.44V158.056H330.512V153.88ZM344 124.504H361.184V129.448H344V124.504ZM330.512 161.176H357.44V165.784H330.512V161.176ZM341.552 148.264H346.976V163.768H341.552V148.264ZM359.216 124.504H364.736C364.736 124.504 364.688 125.944 364.688 126.616C364.256 136.888 363.728 141.064 362.48 142.6C361.568 143.752 360.464 144.184 359.072 144.376C357.824 144.568 355.76 144.568 353.504 144.52C353.456 142.984 352.832 140.872 352.064 139.576C353.84 139.72 355.472 139.768 356.24 139.72C356.912 139.72 357.344 139.624 357.728 139.192C358.496 138.28 358.928 134.776 359.216 125.368V124.504ZM338.624 121.96L342.224 126.184C337.664 127.912 331.712 129.256 326.672 130.168C326.432 129.016 325.712 127.144 325.136 126.04C329.888 125.032 335.216 123.448 338.624 121.96ZM348.8 126.232H354.128C353.552 134.872 352.016 141.496 344.048 145.48C343.424 144.184 341.984 142.264 340.832 141.304C347.504 138.28 348.368 133.048 348.8 126.232ZM333.584 132.28L338.192 130.456C340.256 133.816 342.512 138.328 343.328 141.304L338.336 143.416C337.616 140.488 335.552 135.832 333.584 132.28ZM325.952 144.856L325.472 140.104L327.68 138.328L338.48 135.928C338.768 137.416 339.248 139.528 339.632 140.728C328.976 143.416 327.104 144.088 325.952 144.856ZM325.952 144.808C325.424 143.656 323.888 141.496 323.024 140.68C323.984 139.816 325.136 138.136 325.136 135.64V126.04H330.752V138.712C330.752 138.712 325.952 142.744 325.952 144.808ZM379.184 138.664H401.312V143.608H379.184V138.664ZM370.592 149.416H413.552V154.744H370.592V149.416ZM388.928 146.392H394.832V160.888C394.832 163.864 394.064 165.4 391.808 166.168C389.552 167.032 386.48 167.128 382.4 167.128C382.016 165.496 380.96 163.048 380.048 161.56C383.12 161.704 386.72 161.704 387.68 161.656C388.64 161.608 388.928 161.416 388.928 160.744V146.392ZM399.44 138.664H400.88L402.08 138.376L405.776 141.256C402.128 144.52 397.04 147.832 391.904 149.848C391.184 148.84 389.744 147.256 388.928 146.392C392.96 144.808 397.472 141.88 399.44 139.672V138.664ZM371.168 129.88H413.024V140.44H407.312V134.968H376.592V140.44H371.168V129.88ZM404.048 122.584L410.048 124.36C407.936 127.432 405.488 130.696 403.568 132.76L399.056 131.08C400.832 128.776 402.944 125.224 404.048 122.584ZM375.2 124.888L380.048 122.68C381.776 124.6 383.696 127.144 384.464 129.016L379.28 131.416C378.608 129.64 376.784 126.856 375.2 124.888ZM387.632 123.688L392.72 121.768C394.256 123.88 395.888 126.808 396.512 128.776L391.04 130.84C390.56 128.92 389.024 125.896 387.632 123.688ZM422.192 123.4H439.328V128.296H422.192V123.4ZM419.84 123.4H424.832V142.696C424.832 150.136 424.352 160.984 421.136 167.704C420.272 166.792 418.064 165.208 416.912 164.68C419.648 158.488 419.84 149.512 419.84 142.744V123.4ZM434.672 132.376H439.136V147.976C439.136 149.896 438.896 151.096 437.696 151.864C436.544 152.536 435.056 152.632 433.04 152.632C432.944 151.384 432.464 149.608 431.888 148.408C432.944 148.408 433.856 148.408 434.192 148.408C434.576 148.408 434.672 148.312 434.672 147.928V132.376ZM429.296 132.376H437.312V137.032H429.296V132.376ZM426.464 166.36L425.744 161.656L427.472 159.928L438.32 155.368C438.416 156.808 438.8 158.872 439.184 159.928C429.2 164.44 427.472 165.4 426.464 166.36ZM426.464 166.36C426.224 165.064 425.504 162.76 424.784 161.512C425.648 161.176 426.56 160.552 426.56 158.824V132.376H431.36V162.952C431.36 162.952 426.464 164.68 426.464 166.36ZM440.576 123.544H461.936V128.392H440.576V123.544ZM448.88 126.184L454.352 126.856C453.2 129.4 451.904 132.04 450.896 133.768L446.768 132.952C447.584 130.984 448.448 128.2 448.88 126.184ZM441.536 131.464H460.88V155.8H455.792V135.736H446.384V155.8H441.536V131.464ZM448.64 138.088H453.44V149.032C453.44 155.56 451.76 163 441.536 167.368C440.912 166.312 439.52 164.632 438.368 163.72C447.344 160.264 448.64 153.832 448.64 148.984V138.088ZM451.232 159.4L454.208 156.28C457.088 158.44 460.928 161.608 462.704 163.672L459.536 167.224C457.808 165.016 454.16 161.704 451.232 159.4ZM467.552 133.816H473.264V167.272H467.552V133.816ZM467.888 125.32L472.064 122.584C474.416 124.984 477.824 128.488 479.456 130.6L475.04 133.768C473.504 131.56 470.24 127.96 467.888 125.32ZM480.608 124.648H506.72V129.976H480.608V124.648ZM502.688 124.648H508.448V160.408C508.448 163.576 507.776 165.112 505.904 166.072C503.984 166.984 501.152 167.08 497.072 167.08C496.88 165.448 496.016 162.904 495.296 161.368C497.744 161.56 500.72 161.512 501.536 161.512C502.4 161.512 502.688 161.176 502.688 160.36V124.648ZM481.616 137.032H496.832V155.368H481.616V150.232H491.264V142.168H481.616V137.032ZM478.736 137.032H483.92V158.056H478.736V137.032Z" fill="black"/>
</svg>
