<svg width="200" height="288" viewBox="0 0 200 288" fill="none" xmlns="http://www.w3.org/2000/svg">
<path d="M91.52 99.425C96.7083 96.1823 103.292 96.1823 108.48 99.425L145.791 122.745C155.818 129.011 155.818 143.614 145.791 149.88L108.48 173.2C103.292 176.443 96.7083 176.443 91.52 173.2L54.2088 149.88C44.1821 143.614 44.1821 129.011 54.2088 122.745L91.52 99.425Z" fill="#FFBC03"/>
<path d="M91.52 76.925C96.7083 73.6823 103.292 73.6823 108.48 76.925L145.791 100.245C155.818 106.511 155.818 121.114 145.791 127.38L108.48 150.7C103.292 153.943 96.7083 153.943 91.52 150.7L54.2088 127.38C44.1821 121.114 44.1821 106.511 54.2088 100.245L91.52 76.925Z" fill="#F6414A"/>
<path d="M91.52 26.3C96.7083 23.0573 103.292 23.0573 108.48 26.3L168.291 63.682C178.318 69.9487 178.318 84.5513 168.291 90.818L108.48 128.2C103.292 131.443 96.7083 131.443 91.52 128.2L31.7087 90.818C21.6821 84.5513 21.6821 69.9487 31.7088 63.682L91.52 26.3Z" fill="#282828"/>
<path d="M55.0391 238V213.371H47.2461V209.523H67.168V213.371H59.375V238H55.0391ZM76.4648 238V236.203H76.3867C76.0091 236.893 75.4232 237.401 74.6289 237.727C73.8477 238.065 72.7669 238.234 71.3867 238.234C69.1211 238.208 67.3763 237.609 66.1523 236.438C64.8633 235.292 64.2188 233.827 64.2188 232.043C64.2188 230.337 64.7786 228.924 65.8984 227.805C67.0182 226.659 68.6589 226.073 70.8203 226.047H76.4648V223.918C76.4909 222.134 75.1042 221.268 72.3047 221.32C71.2891 221.32 70.4883 221.424 69.9023 221.633C69.2904 221.88 68.8086 222.297 68.457 222.883L65.2539 220.441C66.8034 218.41 69.0885 217.421 72.1094 217.473C74.6615 217.447 76.6992 217.928 78.2227 218.918C79.7461 219.934 80.5208 221.678 80.5469 224.152V238H76.4648ZM76.4648 230.871V229.406H71.582C69.2122 229.458 68.0404 230.272 68.0664 231.848C68.0664 232.538 68.3724 233.124 68.9844 233.605C69.5703 234.139 70.5404 234.406 71.8945 234.406C73.6003 234.432 74.8047 234.23 75.5078 233.801C76.1458 233.371 76.4648 232.395 76.4648 230.871ZM85.9375 238V217.727H90.0195V238H85.9375ZM85.9375 213.605V209.523H90.0195V213.605H85.9375ZM105.039 226.398V222.316H115.156V228.117C115.104 230.969 114.128 233.358 112.227 235.285C110.312 237.199 107.904 238.182 105 238.234C102.76 238.182 100.892 237.635 99.3945 236.594C97.8711 235.591 96.7643 234.432 96.0742 233.117C95.8659 232.688 95.6771 232.277 95.5078 231.887C95.3516 231.483 95.2214 230.975 95.1172 230.363C94.9219 229.217 94.8242 227.017 94.8242 223.762C94.8242 220.454 94.9219 218.241 95.1172 217.121C95.3255 216.001 95.6445 215.096 96.0742 214.406C96.7643 213.091 97.8711 211.919 99.3945 210.891C100.892 209.849 102.76 209.315 105 209.289C107.747 209.315 109.987 210.129 111.719 211.73C113.451 213.345 114.544 215.344 115 217.727H110.43C110.078 216.581 109.44 215.604 108.516 214.797C107.552 214.029 106.38 213.632 105 213.605C103.984 213.632 103.112 213.833 102.383 214.211C101.641 214.602 101.042 215.09 100.586 215.676C100.026 216.288 99.6549 217.076 99.4727 218.039C99.2643 219.055 99.1602 220.962 99.1602 223.762C99.1602 226.561 99.2643 228.456 99.4727 229.445C99.6549 230.435 100.026 231.236 100.586 231.848C101.042 232.434 101.641 232.909 102.383 233.273C103.112 233.703 103.984 233.918 105 233.918C106.68 233.918 108.066 233.345 109.16 232.199C110.254 231.105 110.814 229.667 110.84 227.883V226.398H105.039ZM135.566 229.406H122.93C122.93 231.034 123.398 232.271 124.336 233.117C125.208 233.977 126.354 234.406 127.773 234.406C129.427 234.406 130.905 233.749 132.207 232.434L135.156 234.953C133.086 237.167 130.651 238.26 127.852 238.234C126.784 238.234 125.742 238.078 124.727 237.766C124.219 237.596 123.724 237.368 123.242 237.082C122.734 236.835 122.259 236.529 121.816 236.164C120.957 235.409 120.26 234.354 119.727 233C119.141 231.698 118.848 230.005 118.848 227.922C118.848 225.917 119.102 224.25 119.609 222.922C120.117 221.568 120.768 220.5 121.562 219.719C122.37 218.924 123.275 218.352 124.277 218C125.267 217.648 126.243 217.473 127.207 217.473C129.525 217.499 131.484 218.26 133.086 219.758C134.714 221.281 135.54 223.378 135.566 226.047V229.406ZM122.93 226.047H131.484C131.432 224.471 131.009 223.28 130.215 222.473C129.434 221.704 128.431 221.32 127.207 221.32C125.983 221.32 124.98 221.704 124.199 222.473C123.431 223.28 123.008 224.471 122.93 226.047ZM139.844 238V217.727H143.926V219.875H144.004C145.345 218.273 147.103 217.473 149.277 217.473C150.905 217.499 152.324 218.02 153.535 219.035L150.566 222.57C149.707 221.893 148.815 221.555 147.891 221.555C146.849 221.555 145.957 221.893 145.215 222.57C144.382 223.234 143.952 224.309 143.926 225.793V238H139.844Z" fill="black"/>
<path d="M34.944 271.728V274.768H25.248C25.92 275.888 26.656 277.264 27.072 278.16L24.128 279.216C23.744 278.224 22.88 276.56 22.208 275.312L23.84 274.768H14.304V271.728H34.944ZM28.416 264.496V267.6H30.752V264.496H28.416ZM25.856 267.6V264.496H23.616V267.6H25.856ZM21.024 267.6V264.496H18.848V267.6H21.024ZM15.872 261.808H22.336C22.4 261.296 22.464 260.752 22.528 260.176H14.72V257.168H22.784C22.848 256.304 22.88 255.536 22.912 254.8L26.944 254.928L26.624 257.168H34.816V260.176H26.208C26.112 260.752 26.016 261.296 25.952 261.808H33.856V270.288H15.872V261.808ZM11.104 254.928L14.496 256.304C12.416 259.344 9.312 262.896 6.656 265.232C6.272 264.368 5.44 262.896 4.896 262.096C7.104 260.24 9.792 257.168 11.104 254.928ZM11.648 261.936L15.072 263.152C14.368 264.592 13.504 266.128 12.576 267.6H12.608V284.784H9.056V272.592C8.288 273.584 7.488 274.48 6.752 275.216C6.368 274.416 5.28 272.496 4.672 271.664C7.232 269.232 9.952 265.552 11.648 261.936ZM15.712 283.6L12.864 281.968C13.952 280.496 14.88 278.096 15.36 276.048L18.24 277.168C17.664 279.28 16.832 281.904 15.712 283.6ZM23.264 281.52H26.368C27.264 281.52 27.456 281.168 27.552 278.864C28.224 279.312 29.568 279.792 30.464 279.984C30.112 283.472 29.216 284.336 26.752 284.336H22.784C19.488 284.336 18.688 283.44 18.688 280.656V276.752H22.016V280.624C22.016 281.424 22.208 281.52 23.264 281.52ZM29.056 277.104L31.84 275.856C33.248 277.744 34.72 280.208 35.232 281.904L32.256 283.248C31.84 281.584 30.464 278.992 29.056 277.104ZM48.512 270.992V268.944H46.368V270.992H48.512ZM51.072 266.928V273.008H43.936V266.928H51.072ZM41.952 280.144H61.856V259.696H57.952C58.944 260.208 60 260.912 60.576 261.52L59.296 262.864H60.832V265.552H55.104C55.264 267.344 55.456 269.008 55.712 270.448C56.352 269.232 56.832 267.888 57.216 266.448L60.128 267.024C59.36 269.808 58.208 272.272 56.768 274.352C57.184 275.344 57.664 275.952 58.208 276.08C58.592 276.176 58.848 274.928 58.976 273.072C59.552 273.648 60.704 274.512 61.344 274.864C60.832 278.8 59.168 280.016 57.056 279.056C56.096 278.736 55.296 278 54.656 276.944C53.632 277.968 52.544 278.896 51.328 279.664C50.912 279.088 49.888 277.872 49.248 277.36C49.6 277.168 49.952 276.944 50.304 276.72C47.744 277.104 45.216 277.456 43.104 277.808L42.752 275.024C45.088 274.8 48.416 274.384 51.744 273.936L51.808 275.568C52.384 275.056 52.896 274.512 53.408 273.936C52.736 271.632 52.32 268.72 52.032 265.552H43.136V262.864H51.808C51.744 261.968 51.712 261.072 51.648 260.144H54.784C54.816 261.072 54.848 261.968 54.912 262.864H58.368C57.696 262.288 56.736 261.616 55.904 261.168L57.376 259.696H41.952V280.144ZM38.336 256.272H65.632V284.88H61.856V283.536H41.952V284.88H38.336V256.272ZM82.368 273.872H76.992V275.856H82.368V273.872ZM91.264 275.856V273.872H85.984V275.856H91.264ZM85.984 280.752H91.264V278.608H85.984V280.752ZM76.992 280.752H82.368V278.608H76.992V280.752ZM73.12 284.816V270.864H95.36V284.688H91.264V283.76H76.992V284.816H73.12ZM84 256.4H97.76C97.76 256.4 97.76 257.36 97.728 257.808C97.44 264.624 97.12 267.376 96.288 268.368C95.68 269.168 94.944 269.456 94.016 269.584C93.184 269.712 91.808 269.68 90.336 269.648C90.272 268.624 89.888 267.248 89.344 266.384C90.56 266.48 91.648 266.512 92.16 266.48C92.576 266.48 92.864 266.448 93.12 266.128C93.536 265.616 93.824 263.92 94.016 259.664H90.528C90.016 264.368 88.672 268.016 84.032 270.288C83.712 269.616 83.072 268.688 82.432 268.048L80.256 268.912C80.16 268.496 80 268.016 79.84 267.504C73.888 268.976 72.768 269.392 72.064 269.872C71.68 269.072 70.688 267.696 70.08 267.152C70.752 266.576 71.488 265.424 71.488 263.792V257.424C74.656 256.72 78.208 255.664 80.448 254.704L82.88 257.52C80.576 258.384 77.856 259.088 75.232 259.6V265.168L78.528 264.4C78.112 263.408 77.6 262.416 77.088 261.552L80.16 260.336C81.344 262.288 82.656 264.816 83.328 266.768C85.888 265.04 86.688 262.64 87.008 259.664H84V256.4ZM119.744 258.864L117.92 260.464C117.504 260.048 116.896 259.6 116.256 259.12C115.392 259.76 114.528 260.304 113.664 260.72C113.248 260.272 112.288 259.44 111.68 259.024C112.512 258.704 113.344 258.256 114.112 257.776C113.504 257.424 112.96 257.104 112.384 256.816L114.08 255.344C114.688 255.632 115.36 255.984 116.032 256.368C116.448 255.952 116.864 255.536 117.184 255.088L119.68 255.824C119.232 256.432 118.688 257.04 118.08 257.584C118.72 258.032 119.296 258.48 119.744 258.864ZM107.936 265.232L108 266.352H113.184C112.832 265.936 112.224 265.328 111.744 264.88V265.232H107.936ZM105.696 269.104V272.912H102.08V266.352H104.48L103.904 256.848C105.824 256.528 108.672 255.664 110.368 255.056L111.936 257.264C110.688 257.744 109.056 258.16 107.552 258.48L107.616 259.408H111.68V261.776H107.744L107.808 262.864H111.744V264.496C112.512 264.112 113.312 263.728 113.984 263.28C113.376 262.896 112.768 262.544 112.192 262.224L113.952 260.72C114.592 261.04 115.264 261.424 115.968 261.808C116.416 261.392 116.864 260.912 117.216 260.464L119.712 261.2C119.232 261.872 118.656 262.512 118.016 263.12C118.784 263.632 119.456 264.112 119.968 264.592L118.048 266.256C117.568 265.776 116.928 265.264 116.192 264.688C115.328 265.328 114.464 265.872 113.6 266.352H123.968L124.096 265.232H120.32V262.864H124.32L124.384 261.776H120.48V259.408H124.544L124.608 258.352H120.32V255.952H128.32C128.16 259.312 127.904 263.376 127.648 266.352H130.016V272.912H126.24V269.104H105.696ZM130.432 275.92V278.928H118.208V281.232C118.208 282.928 117.824 283.76 116.512 284.272C115.2 284.72 113.44 284.752 111.04 284.752C110.88 283.728 110.336 282.448 109.888 281.552C111.392 281.616 113.312 281.616 113.792 281.584C114.304 281.584 114.464 281.488 114.464 281.104V278.928H101.504V275.92H114.464V274.992C115.616 274.544 116.832 273.84 117.984 273.136H107.712V270.48H121.632L122.432 270.288L124.576 272.24C122.816 273.52 120.64 274.832 118.464 275.92H130.432ZM158.56 266.192V264.272H153.056V266.192H158.56ZM158.56 270.8V268.816H153.056V270.8H158.56ZM158.56 275.344V273.456H153.056V275.344H158.56ZM149.952 261.424H153.792C153.888 260.752 153.952 260.048 154.016 259.376H149.28V256.176H162.56V259.376H157.792C157.6 260.08 157.408 260.784 157.216 261.424H161.76V278.192H149.952V261.424ZM141.216 279.408V280.56H143.296V279.408H141.216ZM139.552 268.08H137.728C137.696 269.456 137.664 270.96 137.568 272.528C138.432 271.216 139.104 269.648 139.552 268.08ZM145.088 263.504H137.728V265.264H145.088V263.504ZM143.296 274.032V272.912H141.216V274.032H143.296ZM143.296 277.264V276.112H141.216V277.264H143.296ZM148.992 280.56V281.936C150.432 281.008 151.872 279.632 152.64 278.608L155.616 280.4C154.304 282 152.128 283.856 150.272 284.816C149.824 284.336 149.056 283.6 148.384 283.024H141.216V284.496H138.464V276.112C138.272 276.336 138.08 276.56 137.888 276.784C137.76 276.56 137.568 276.208 137.312 275.824C137.024 278.96 136.48 282 135.52 284.464C134.912 283.984 133.504 283.216 132.704 282.928C134.496 278.288 134.624 271.568 134.624 266.896V257.2C138.656 256.88 143.2 256.176 145.888 255.344L148.64 257.872C145.568 258.768 141.472 259.376 137.728 259.728V260.688H148.48V268.08H140.096L142.208 268.656C142.016 269.296 141.792 269.904 141.568 270.544H143.232C143.008 269.936 142.752 269.296 142.496 268.752L144.992 268.112C145.408 268.848 145.824 269.776 146.08 270.544H148.736V272.912H145.76V274.032H148.416V276.112H145.76V277.264H148.448V279.408H145.76V280.56H148.992ZM156.48 280.336L159.2 278.672C160.544 279.824 162.24 281.52 163.072 282.672L160.192 284.592C159.456 283.408 157.824 281.616 156.48 280.336ZM175.296 259.024H170.4V260.752H175.296V259.024ZM170.4 265.136H175.296V263.312H170.4V265.136ZM178.848 268.016H170.4V284.784H166.624V256.112H178.848V268.016ZM182.528 273.36H177.248V277.136H182.528V273.36ZM186.08 280.272H177.248V282.064H173.696V270.224H186.08V280.272ZM184.672 265.168H189.728V263.312H184.672V265.168ZM189.728 258.992H184.672V260.752H189.728V258.992ZM193.568 256.112V280.24C193.568 282.352 193.152 283.44 191.808 284.048C190.496 284.688 188.48 284.784 185.536 284.784C185.408 283.696 184.8 281.904 184.256 280.88C186.112 281.008 188.288 280.976 188.896 280.944C189.504 280.944 189.728 280.752 189.728 280.176V268.048H181.056V256.112H193.568Z" fill="black"/>
</svg>
