<svg width="416" height="200" viewBox="0 0 416 200" fill="none" xmlns="http://www.w3.org/2000/svg">
<path d="M91.52 99.425C96.7083 96.1823 103.292 96.1823 108.48 99.425L145.791 122.745C155.818 129.011 155.818 143.614 145.791 149.88L108.48 173.2C103.292 176.443 96.7083 176.443 91.52 173.2L54.2088 149.88C44.1821 143.614 44.1821 129.011 54.2088 122.745L91.52 99.425Z" fill="#FFBC03"/>
<path d="M91.52 76.925C96.7083 73.6823 103.292 73.6823 108.48 76.925L145.791 100.245C155.818 106.511 155.818 121.114 145.791 127.38L108.48 150.7C103.292 153.943 96.7083 153.943 91.52 150.7L54.2088 127.38C44.1821 121.114 44.1821 106.511 54.2088 100.245L91.52 76.925Z" fill="#F6414A"/>
<path d="M91.52 26.3C96.7083 23.0573 103.292 23.0573 108.48 26.3L168.291 63.682C178.318 69.9487 178.318 84.5513 168.291 90.818L108.48 128.2C103.292 131.443 96.7083 131.443 91.52 128.2L31.7087 90.818C21.6821 84.5513 21.6821 69.9487 31.7088 63.682L91.52 26.3Z" fill="#282828"/>
<path d="M238.57 126V81.668H224.543V74.7422H260.402V81.668H246.375V126H238.57ZM277.137 126V122.766H276.996C276.316 124.008 275.262 124.922 273.832 125.508C272.426 126.117 270.48 126.422 267.996 126.422C263.918 126.375 260.777 125.297 258.574 123.188C256.254 121.125 255.094 118.488 255.094 115.277C255.094 112.207 256.102 109.664 258.117 107.648C260.133 105.586 263.086 104.531 266.977 104.484H277.137V100.652C277.184 97.4414 274.688 95.8828 269.648 95.9766C267.82 95.9766 266.379 96.1641 265.324 96.5391C264.223 96.9844 263.355 97.7344 262.723 98.7891L256.957 94.3945C259.746 90.7383 263.859 88.957 269.297 89.0508C273.891 89.0039 277.559 89.8711 280.301 91.6523C283.043 93.4805 284.438 96.6211 284.484 101.074V126H277.137ZM277.137 113.168V110.531H268.348C264.082 110.625 261.973 112.09 262.02 114.926C262.02 116.168 262.57 117.223 263.672 118.09C264.727 119.051 266.473 119.531 268.91 119.531C271.98 119.578 274.148 119.215 275.414 118.441C276.562 117.668 277.137 115.91 277.137 113.168ZM294.188 126V89.5078H301.535V126H294.188ZM294.188 82.0898V74.7422H301.535V82.0898H294.188ZM328.57 105.117V97.7695H346.781V108.211C346.688 113.344 344.93 117.645 341.508 121.113C338.062 124.559 333.727 126.328 328.5 126.422C324.469 126.328 321.105 125.344 318.41 123.469C315.668 121.664 313.676 119.578 312.434 117.211C312.059 116.438 311.719 115.699 311.414 114.996C311.133 114.27 310.898 113.355 310.711 112.254C310.359 110.191 310.184 106.23 310.184 100.371C310.184 94.418 310.359 90.4336 310.711 88.418C311.086 86.4023 311.66 84.7734 312.434 83.5312C313.676 81.1641 315.668 79.0547 318.41 77.2031C321.105 75.3281 324.469 74.3672 328.5 74.3203C333.445 74.3672 337.477 75.832 340.594 78.7148C343.711 81.6211 345.68 85.2188 346.5 89.5078H338.273C337.641 87.4453 336.492 85.6875 334.828 84.2344C333.094 82.8516 330.984 82.1367 328.5 82.0898C326.672 82.1367 325.102 82.5 323.789 83.1797C322.453 83.8828 321.375 84.7617 320.555 85.8164C319.547 86.918 318.879 88.3359 318.551 90.0703C318.176 91.8984 317.988 95.332 317.988 100.371C317.988 105.41 318.176 108.82 318.551 110.602C318.879 112.383 319.547 113.824 320.555 114.926C321.375 115.98 322.453 116.836 323.789 117.492C325.102 118.266 326.672 118.652 328.5 118.652C331.523 118.652 334.02 117.621 335.988 115.559C337.957 113.59 338.965 111 339.012 107.789V105.117H328.57ZM383.52 110.531H360.773C360.773 113.461 361.617 115.688 363.305 117.211C364.875 118.758 366.938 119.531 369.492 119.531C372.469 119.531 375.129 118.348 377.473 115.98L382.781 120.516C379.055 124.5 374.672 126.469 369.633 126.422C367.711 126.422 365.836 126.141 364.008 125.578C363.094 125.273 362.203 124.863 361.336 124.348C360.422 123.902 359.566 123.352 358.77 122.695C357.223 121.336 355.969 119.438 355.008 117C353.953 114.656 353.426 111.609 353.426 107.859C353.426 104.25 353.883 101.25 354.797 98.8594C355.711 96.4219 356.883 94.5 358.312 93.0938C359.766 91.6641 361.395 90.6328 363.199 90C364.98 89.3672 366.738 89.0508 368.473 89.0508C372.645 89.0977 376.172 90.4688 379.055 93.1641C381.984 95.9062 383.473 99.6797 383.52 104.484V110.531ZM360.773 104.484H376.172C376.078 101.648 375.316 99.5039 373.887 98.0508C372.48 96.668 370.676 95.9766 368.473 95.9766C366.27 95.9766 364.465 96.668 363.059 98.0508C361.676 99.5039 360.914 101.648 360.773 104.484ZM391.219 126V89.5078H398.566V93.375H398.707C401.121 90.4922 404.285 89.0508 408.199 89.0508C411.129 89.0977 413.684 90.0352 415.863 91.8633L410.52 98.2266C408.973 97.0078 407.367 96.3984 405.703 96.3984C403.828 96.3984 402.223 97.0078 400.887 98.2266C399.387 99.4219 398.613 101.355 398.566 104.027V126H391.219Z" fill="white"/>
</svg>
