<svg width="512" height="200" viewBox="0 0 512 200" fill="none" xmlns="http://www.w3.org/2000/svg">
<path d="M91.52 99.425C96.7083 96.1823 103.292 96.1823 108.48 99.425L145.791 122.745C155.818 129.011 155.818 143.614 145.791 149.88L108.48 173.2C103.292 176.443 96.7083 176.443 91.52 173.2L54.2088 149.88C44.1821 143.614 44.1821 129.011 54.2088 122.745L91.52 99.425Z" fill="#FFBC03"/>
<path d="M91.52 76.925C96.7083 73.6823 103.292 73.6823 108.48 76.925L145.791 100.245C155.818 106.511 155.818 121.114 145.791 127.38L108.48 150.7C103.292 153.943 96.7083 153.943 91.52 150.7L54.2088 127.38C44.1821 121.114 44.1821 106.511 54.2088 100.245L91.52 76.925Z" fill="#F6414A"/>
<path d="M91.52 26.3C96.7083 23.0573 103.292 23.0573 108.48 26.3L168.291 63.682C178.318 69.9487 178.318 84.5513 168.291 90.818L108.48 128.2C103.292 131.443 96.7083 131.443 91.52 128.2L31.7087 90.818C21.6821 84.5513 21.6821 69.9487 31.7088 63.682L91.52 26.3Z" fill="#282828"/>
<path d="M238.57 94V49.668H224.543V42.7422H260.402V49.668H246.375V94H238.57ZM277.137 94V90.7656H276.996C276.316 92.0078 275.262 92.9219 273.832 93.5078C272.426 94.1172 270.48 94.4219 267.996 94.4219C263.918 94.375 260.777 93.2969 258.574 91.1875C256.254 89.125 255.094 86.4883 255.094 83.2773C255.094 80.207 256.102 77.6641 258.117 75.6484C260.133 73.5859 263.086 72.5312 266.977 72.4844H277.137V68.6523C277.184 65.4414 274.688 63.8828 269.648 63.9766C267.82 63.9766 266.379 64.1641 265.324 64.5391C264.223 64.9844 263.355 65.7344 262.723 66.7891L256.957 62.3945C259.746 58.7383 263.859 56.957 269.297 57.0508C273.891 57.0039 277.559 57.8711 280.301 59.6523C283.043 61.4805 284.438 64.6211 284.484 69.0742V94H277.137ZM277.137 81.168V78.5312H268.348C264.082 78.625 261.973 80.0898 262.02 82.9258C262.02 84.168 262.57 85.2227 263.672 86.0898C264.727 87.0508 266.473 87.5312 268.91 87.5312C271.98 87.5781 274.148 87.2148 275.414 86.4414C276.562 85.668 277.137 83.9102 277.137 81.168ZM294.188 94V57.5078H301.535V94H294.188ZM294.188 50.0898V42.7422H301.535V50.0898H294.188ZM328.57 73.1172V65.7695H346.781V76.2109C346.688 81.3438 344.93 85.6445 341.508 89.1133C338.062 92.5586 333.727 94.3281 328.5 94.4219C324.469 94.3281 321.105 93.3438 318.41 91.4688C315.668 89.6641 313.676 87.5781 312.434 85.2109C312.059 84.4375 311.719 83.6992 311.414 82.9961C311.133 82.2695 310.898 81.3555 310.711 80.2539C310.359 78.1914 310.184 74.2305 310.184 68.3711C310.184 62.418 310.359 58.4336 310.711 56.418C311.086 54.4023 311.66 52.7734 312.434 51.5312C313.676 49.1641 315.668 47.0547 318.41 45.2031C321.105 43.3281 324.469 42.3672 328.5 42.3203C333.445 42.3672 337.477 43.832 340.594 46.7148C343.711 49.6211 345.68 53.2188 346.5 57.5078H338.273C337.641 55.4453 336.492 53.6875 334.828 52.2344C333.094 50.8516 330.984 50.1367 328.5 50.0898C326.672 50.1367 325.102 50.5 323.789 51.1797C322.453 51.8828 321.375 52.7617 320.555 53.8164C319.547 54.918 318.879 56.3359 318.551 58.0703C318.176 59.8984 317.988 63.332 317.988 68.3711C317.988 73.4102 318.176 76.8203 318.551 78.6016C318.879 80.3828 319.547 81.8242 320.555 82.9258C321.375 83.9805 322.453 84.8359 323.789 85.4922C325.102 86.2656 326.672 86.6523 328.5 86.6523C331.523 86.6523 334.02 85.6211 335.988 83.5586C337.957 81.5898 338.965 79 339.012 75.7891V73.1172H328.57ZM383.52 78.5312H360.773C360.773 81.4609 361.617 83.6875 363.305 85.2109C364.875 86.7578 366.938 87.5312 369.492 87.5312C372.469 87.5312 375.129 86.3477 377.473 83.9805L382.781 88.5156C379.055 92.5 374.672 94.4688 369.633 94.4219C367.711 94.4219 365.836 94.1406 364.008 93.5781C363.094 93.2734 362.203 92.8633 361.336 92.3477C360.422 91.9023 359.566 91.3516 358.77 90.6953C357.223 89.3359 355.969 87.4375 355.008 85C353.953 82.6562 353.426 79.6094 353.426 75.8594C353.426 72.25 353.883 69.25 354.797 66.8594C355.711 64.4219 356.883 62.5 358.312 61.0938C359.766 59.6641 361.395 58.6328 363.199 58C364.98 57.3672 366.738 57.0508 368.473 57.0508C372.645 57.0977 376.172 58.4688 379.055 61.1641C381.984 63.9062 383.473 67.6797 383.52 72.4844V78.5312ZM360.773 72.4844H376.172C376.078 69.6484 375.316 67.5039 373.887 66.0508C372.48 64.668 370.676 63.9766 368.473 63.9766C366.27 63.9766 364.465 64.668 363.059 66.0508C361.676 67.5039 360.914 69.6484 360.773 72.4844ZM391.219 94V57.5078H398.566V61.375H398.707C401.121 58.4922 404.285 57.0508 408.199 57.0508C411.129 57.0977 413.684 58.0352 415.863 59.8633L410.52 66.2266C408.973 65.0078 407.367 64.3984 405.703 64.3984C403.828 64.3984 402.223 65.0078 400.887 66.2266C399.387 67.4219 398.613 69.3555 398.566 72.0273V94H391.219Z" fill="black"/>
<path d="M258.032 151.528H237.68V159.208H258.032V151.528ZM231.824 167.128V146.056H264.176V167.08H258.032V164.68H237.68V167.128H231.824ZM251.936 129.736L256.4 126.76C260.816 130.888 266.528 136.792 269.024 140.824L264.176 144.328C263.552 143.272 262.688 142.024 261.68 140.68C236.192 141.928 232.784 142.024 230.24 142.888C229.952 141.736 229.04 138.904 228.368 137.416C229.616 137.08 230.768 136.168 232.352 134.632C234.032 133.144 239.264 127.336 242.528 121.576L248.288 124.024C245.264 128.488 241.472 132.76 237.824 136.264L257.504 135.64C255.632 133.528 253.712 131.512 251.936 129.736ZM318.416 147.592V152.152H303.872C304.88 153.832 305.984 155.896 306.608 157.24L302.192 158.824C301.616 157.336 300.32 154.84 299.312 152.968L301.76 152.152H287.456V147.592H318.416ZM308.624 136.744V141.4H312.128V136.744H308.624ZM304.784 141.4V136.744H301.424V141.4H304.784ZM297.536 141.4V136.744H294.272V141.4H297.536ZM289.808 132.712H299.504C299.6 131.944 299.696 131.128 299.792 130.264H288.08V125.752H300.176C300.272 124.456 300.32 123.304 300.368 122.2L306.416 122.392L305.936 125.752H318.224V130.264H305.312C305.168 131.128 305.024 131.944 304.928 132.712H316.784V145.432H289.808V132.712ZM282.656 122.392L287.744 124.456C284.624 129.016 279.968 134.344 275.984 137.848C275.408 136.552 274.16 134.344 273.344 133.144C276.656 130.36 280.688 125.752 282.656 122.392ZM283.472 132.904L288.608 134.728C287.552 136.888 286.256 139.192 284.864 141.4H284.912V167.176H279.584V148.888C278.432 150.376 277.232 151.72 276.128 152.824C275.552 151.624 273.92 148.744 273.008 147.496C276.848 143.848 280.928 138.328 283.472 132.904ZM289.568 165.4L285.296 162.952C286.928 160.744 288.32 157.144 289.04 154.072L293.36 155.752C292.496 158.92 291.248 162.856 289.568 165.4ZM300.896 162.28H305.552C306.896 162.28 307.184 161.752 307.328 158.296C308.336 158.968 310.352 159.688 311.696 159.976C311.168 165.208 309.824 166.504 306.128 166.504H300.176C295.232 166.504 294.032 165.16 294.032 160.984V155.128H299.024V160.936C299.024 162.136 299.312 162.28 300.896 162.28ZM309.584 155.656L313.76 153.784C315.872 156.616 318.08 160.312 318.848 162.856L314.384 164.872C313.76 162.376 311.696 158.488 309.584 155.656ZM341.552 150.808H333.488V153.784H341.552V150.808ZM354.896 153.784V150.808H346.976V153.784H354.896ZM346.976 161.128H354.896V157.912H346.976V161.128ZM333.488 161.128H341.552V157.912H333.488V161.128ZM327.68 167.224V146.296H361.04V167.032H354.896V165.64H333.488V167.224H327.68ZM344 124.6H364.64C364.64 124.6 364.64 126.04 364.592 126.712C364.16 136.936 363.68 141.064 362.432 142.552C361.52 143.752 360.416 144.184 359.024 144.376C357.776 144.568 355.712 144.52 353.504 144.472C353.408 142.936 352.832 140.872 352.016 139.576C353.84 139.72 355.472 139.768 356.24 139.72C356.864 139.72 357.296 139.672 357.68 139.192C358.304 138.424 358.736 135.88 359.024 129.496H353.792C353.024 136.552 351.008 142.024 344.048 145.432C343.568 144.424 342.608 143.032 341.648 142.072L338.384 143.368C338.24 142.744 338 142.024 337.76 141.256C328.832 143.464 327.152 144.088 326.096 144.808C325.52 143.608 324.032 141.544 323.12 140.728C324.128 139.864 325.232 138.136 325.232 135.688V126.136C329.984 125.08 335.312 123.496 338.672 122.056L342.32 126.28C338.864 127.576 334.784 128.632 330.848 129.4V137.752L335.792 136.6C335.168 135.112 334.4 133.624 333.632 132.328L338.24 130.504C340.016 133.432 341.984 137.224 342.992 140.152C346.832 137.56 348.032 133.96 348.512 129.496H344V124.6ZM397.616 128.296L394.88 130.696C394.256 130.072 393.344 129.4 392.384 128.68C391.088 129.64 389.792 130.456 388.496 131.08C387.872 130.408 386.432 129.16 385.52 128.536C386.768 128.056 388.016 127.384 389.168 126.664C388.256 126.136 387.44 125.656 386.576 125.224L389.12 123.016C390.032 123.448 391.04 123.976 392.048 124.552C392.672 123.928 393.296 123.304 393.776 122.632L397.52 123.736C396.848 124.648 396.032 125.56 395.12 126.376C396.08 127.048 396.944 127.72 397.616 128.296ZM379.904 137.848L380 139.528H387.776C387.248 138.904 386.336 137.992 385.616 137.32V137.848H379.904ZM376.544 143.656V149.368H371.12V139.528H374.72L373.856 125.272C376.736 124.792 381.008 123.496 383.552 122.584L385.904 125.896C384.032 126.616 381.584 127.24 379.328 127.72L379.424 129.112H385.52V132.664H379.616L379.712 134.296H385.616V136.744C386.768 136.168 387.968 135.592 388.976 134.92C388.064 134.344 387.152 133.816 386.288 133.336L388.928 131.08C389.888 131.56 390.896 132.136 391.952 132.712C392.624 132.088 393.296 131.368 393.824 130.696L397.568 131.8C396.848 132.808 395.984 133.768 395.024 134.68C396.176 135.448 397.184 136.168 397.952 136.888L395.072 139.384C394.352 138.664 393.392 137.896 392.288 137.032C390.992 137.992 389.696 138.808 388.4 139.528H403.952L404.144 137.848H398.48V134.296H404.48L404.576 132.664H398.72V129.112H404.816L404.912 127.528H398.48V123.928H410.48C410.24 128.968 409.856 135.064 409.472 139.528H413.024V149.368H407.36V143.656H376.544ZM413.648 153.88V158.392H395.312V161.848C395.312 164.392 394.736 165.64 392.768 166.408C390.8 167.08 388.16 167.128 384.56 167.128C384.32 165.592 383.504 163.672 382.832 162.328C385.088 162.424 387.968 162.424 388.688 162.376C389.456 162.376 389.696 162.232 389.696 161.656V158.392H370.256V153.88H389.696V152.488C391.424 151.816 393.248 150.76 394.976 149.704H379.568V145.72H400.448L401.648 145.432L404.864 148.36C402.224 150.28 398.96 152.248 395.696 153.88H413.648ZM455.84 139.288V136.408H447.584V139.288H455.84ZM455.84 146.2V143.224H447.584V146.2H455.84ZM455.84 153.016V150.184H447.584V153.016H455.84ZM442.928 132.136H448.688C448.832 131.128 448.928 130.072 449.024 129.064H441.92V124.264H461.84V129.064H454.688C454.4 130.12 454.112 131.176 453.824 132.136H460.64V157.288H442.928V132.136ZM429.824 159.112V160.84H432.944V159.112H429.824ZM427.328 142.12H424.592C424.544 144.184 424.496 146.44 424.352 148.792C425.648 146.824 426.656 144.472 427.328 142.12ZM435.632 135.256H424.592V137.896H435.632V135.256ZM432.944 151.048V149.368H429.824V151.048H432.944ZM432.944 155.896V154.168H429.824V155.896H432.944ZM441.488 160.84V162.904C443.648 161.512 445.808 159.448 446.96 157.912L451.424 160.6C449.456 163 446.192 165.784 443.408 167.224C442.736 166.504 441.584 165.4 440.576 164.536H429.824V166.744H425.696V154.168C425.408 154.504 425.12 154.84 424.832 155.176C424.64 154.84 424.352 154.312 423.968 153.736C423.536 158.44 422.72 163 421.28 166.696C420.368 165.976 418.256 164.824 417.056 164.392C419.744 157.432 419.936 147.352 419.936 140.344V125.8C425.984 125.32 432.8 124.264 436.832 123.016L440.96 126.808C436.352 128.152 430.208 129.064 424.592 129.592V131.032H440.72V142.12H428.144L431.312 142.984C431.024 143.944 430.688 144.856 430.352 145.816H432.848C432.512 144.904 432.128 143.944 431.744 143.128L435.488 142.168C436.112 143.272 436.736 144.664 437.12 145.816H441.104V149.368H436.64V151.048H440.624V154.168H436.64V155.896H440.672V159.112H436.64V160.84H441.488ZM452.72 160.504L456.8 158.008C458.816 159.736 461.36 162.28 462.608 164.008L458.288 166.888C457.184 165.112 454.736 162.424 452.72 160.504ZM480.944 128.536H473.6V131.128H480.944V128.536ZM473.6 137.704H480.944V134.968H473.6V137.704ZM486.272 142.024H473.6V167.176H467.936V124.168H486.272V142.024ZM491.792 150.04H483.872V155.704H491.792V150.04ZM497.12 160.408H483.872V163.096H478.544V145.336H497.12V160.408ZM495.008 137.752H502.592V134.968H495.008V137.752ZM502.592 128.488H495.008V131.128H502.592V128.488ZM508.352 124.168V160.36C508.352 163.528 507.728 165.16 505.712 166.072C503.744 167.032 500.72 167.176 496.304 167.176C496.112 165.544 495.2 162.856 494.384 161.32C497.168 161.512 500.432 161.464 501.344 161.416C502.256 161.416 502.592 161.128 502.592 160.264V142.072H489.584V124.168H508.352Z" fill="black"/>
</svg>
