<svg width="200" height="248" viewBox="0 0 200 248" fill="none" xmlns="http://www.w3.org/2000/svg">
<path d="M91.52 99.425C96.7083 96.1823 103.292 96.1823 108.48 99.425L145.791 122.745C155.818 129.011 155.818 143.614 145.791 149.88L108.48 173.2C103.292 176.443 96.7083 176.443 91.52 173.2L54.2088 149.88C44.1821 143.614 44.1821 129.011 54.2088 122.745L91.52 99.425Z" fill="#FFBC03"/>
<path d="M91.52 76.925C96.7083 73.6823 103.292 73.6823 108.48 76.925L145.791 100.245C155.818 106.511 155.818 121.114 145.791 127.38L108.48 150.7C103.292 153.943 96.7083 153.943 91.52 150.7L54.2088 127.38C44.1821 121.114 44.1821 106.511 54.2088 100.245L91.52 76.925Z" fill="#F6414A"/>
<path d="M91.52 26.3C96.7083 23.0573 103.292 23.0573 108.48 26.3L168.291 63.682C178.318 69.9487 178.318 84.5513 168.291 90.818L108.48 128.2C103.292 131.443 96.7083 131.443 91.52 128.2L31.7087 90.818C21.6821 84.5513 21.6821 69.9487 31.7088 63.682L91.52 26.3Z" fill="#282828"/>
<path d="M55.0391 238V213.371H47.2461V209.523H67.168V213.371H59.375V238H55.0391ZM76.4648 238V236.203H76.3867C76.0091 236.893 75.4232 237.401 74.6289 237.727C73.8477 238.065 72.7669 238.234 71.3867 238.234C69.1211 238.208 67.3763 237.609 66.1523 236.438C64.8633 235.292 64.2188 233.827 64.2188 232.043C64.2188 230.337 64.7786 228.924 65.8984 227.805C67.0182 226.659 68.6589 226.073 70.8203 226.047H76.4648V223.918C76.4909 222.134 75.1042 221.268 72.3047 221.32C71.2891 221.32 70.4883 221.424 69.9023 221.633C69.2904 221.88 68.8086 222.297 68.457 222.883L65.2539 220.441C66.8034 218.41 69.0885 217.421 72.1094 217.473C74.6615 217.447 76.6992 217.928 78.2227 218.918C79.7461 219.934 80.5208 221.678 80.5469 224.152V238H76.4648ZM76.4648 230.871V229.406H71.582C69.2122 229.458 68.0404 230.272 68.0664 231.848C68.0664 232.538 68.3724 233.124 68.9844 233.605C69.5703 234.139 70.5404 234.406 71.8945 234.406C73.6003 234.432 74.8047 234.23 75.5078 233.801C76.1458 233.371 76.4648 232.395 76.4648 230.871ZM85.9375 238V217.727H90.0195V238H85.9375ZM85.9375 213.605V209.523H90.0195V213.605H85.9375ZM105.039 226.398V222.316H115.156V228.117C115.104 230.969 114.128 233.358 112.227 235.285C110.312 237.199 107.904 238.182 105 238.234C102.76 238.182 100.892 237.635 99.3945 236.594C97.8711 235.591 96.7643 234.432 96.0742 233.117C95.8659 232.688 95.6771 232.277 95.5078 231.887C95.3516 231.483 95.2214 230.975 95.1172 230.363C94.9219 229.217 94.8242 227.017 94.8242 223.762C94.8242 220.454 94.9219 218.241 95.1172 217.121C95.3255 216.001 95.6445 215.096 96.0742 214.406C96.7643 213.091 97.8711 211.919 99.3945 210.891C100.892 209.849 102.76 209.315 105 209.289C107.747 209.315 109.987 210.129 111.719 211.73C113.451 213.345 114.544 215.344 115 217.727H110.43C110.078 216.581 109.44 215.604 108.516 214.797C107.552 214.029 106.38 213.632 105 213.605C103.984 213.632 103.112 213.833 102.383 214.211C101.641 214.602 101.042 215.09 100.586 215.676C100.026 216.288 99.6549 217.076 99.4727 218.039C99.2643 219.055 99.1602 220.962 99.1602 223.762C99.1602 226.561 99.2643 228.456 99.4727 229.445C99.6549 230.435 100.026 231.236 100.586 231.848C101.042 232.434 101.641 232.909 102.383 233.273C103.112 233.703 103.984 233.918 105 233.918C106.68 233.918 108.066 233.345 109.16 232.199C110.254 231.105 110.814 229.667 110.84 227.883V226.398H105.039ZM135.566 229.406H122.93C122.93 231.034 123.398 232.271 124.336 233.117C125.208 233.977 126.354 234.406 127.773 234.406C129.427 234.406 130.905 233.749 132.207 232.434L135.156 234.953C133.086 237.167 130.651 238.26 127.852 238.234C126.784 238.234 125.742 238.078 124.727 237.766C124.219 237.596 123.724 237.368 123.242 237.082C122.734 236.835 122.259 236.529 121.816 236.164C120.957 235.409 120.26 234.354 119.727 233C119.141 231.698 118.848 230.005 118.848 227.922C118.848 225.917 119.102 224.25 119.609 222.922C120.117 221.568 120.768 220.5 121.562 219.719C122.37 218.924 123.275 218.352 124.277 218C125.267 217.648 126.243 217.473 127.207 217.473C129.525 217.499 131.484 218.26 133.086 219.758C134.714 221.281 135.54 223.378 135.566 226.047V229.406ZM122.93 226.047H131.484C131.432 224.471 131.009 223.28 130.215 222.473C129.434 221.704 128.431 221.32 127.207 221.32C125.983 221.32 124.98 221.704 124.199 222.473C123.431 223.28 123.008 224.471 122.93 226.047ZM139.844 238V217.727H143.926V219.875H144.004C145.345 218.273 147.103 217.473 149.277 217.473C150.905 217.499 152.324 218.02 153.535 219.035L150.566 222.57C149.707 221.893 148.815 221.555 147.891 221.555C146.849 221.555 145.957 221.893 145.215 222.57C144.382 223.234 143.952 224.309 143.926 225.793V238H139.844Z" fill="white"/>
</svg>
