<svg width="200" height="200" viewBox="0 0 200 200" fill="none" xmlns="http://www.w3.org/2000/svg">
<path d="M91.52 99.425C96.7083 96.1823 103.292 96.1823 108.48 99.425L145.791 122.745C155.818 129.011 155.818 143.614 145.791 149.88L108.48 173.2C103.292 176.443 96.7083 176.443 91.52 173.2L54.2088 149.88C44.1821 143.614 44.1821 129.011 54.2088 122.745L91.52 99.425Z" fill="#FFBC03"/>
<path d="M91.52 76.925C96.7083 73.6823 103.292 73.6823 108.48 76.925L145.791 100.245C155.818 106.511 155.818 121.114 145.791 127.38L108.48 150.7C103.292 153.943 96.7083 153.943 91.52 150.7L54.2088 127.38C44.1821 121.114 44.1821 106.511 54.2088 100.245L91.52 76.925Z" fill="#F6414A"/>
<path d="M91.52 26.3C96.7083 23.0573 103.292 23.0573 108.48 26.3L168.291 63.682C178.318 69.9487 178.318 84.5513 168.291 90.818L108.48 128.2C103.292 131.443 96.7083 131.443 91.52 128.2L31.7087 90.818C21.6821 84.5513 21.6821 69.9487 31.7088 63.682L91.52 26.3Z" fill="#282828"/>
</svg>
