<svg width="200" height="288" viewBox="0 0 200 288" fill="none" xmlns="http://www.w3.org/2000/svg">
<path d="M91.52 99.425C96.7083 96.1823 103.292 96.1823 108.48 99.425L145.791 122.745C155.818 129.011 155.818 143.614 145.791 149.88L108.48 173.2C103.292 176.443 96.7083 176.443 91.52 173.2L54.2088 149.88C44.1821 143.614 44.1821 129.011 54.2088 122.745L91.52 99.425Z" fill="#FFBC03"/>
<path d="M91.52 76.925C96.7083 73.6823 103.292 73.6823 108.48 76.925L145.791 100.245C155.818 106.511 155.818 121.114 145.791 127.38L108.48 150.7C103.292 153.943 96.7083 153.943 91.52 150.7L54.2088 127.38C44.1821 121.114 44.1821 106.511 54.2088 100.245L91.52 76.925Z" fill="#F6414A"/>
<path d="M91.52 26.3C96.7083 23.0573 103.292 23.0573 108.48 26.3L168.291 63.682C178.318 69.9487 178.318 84.5513 168.291 90.818L108.48 128.2C103.292 131.443 96.7083 131.443 91.52 128.2L31.7087 90.818C21.6821 84.5513 21.6821 69.9487 31.7088 63.682L91.52 26.3Z" fill="#282828"/>
<path d="M55.0391 238V213.371H47.2461V209.523H67.168V213.371H59.375V238H55.0391ZM76.4648 238V236.203H76.3867C76.0091 236.893 75.4232 237.401 74.6289 237.727C73.8477 238.065 72.7669 238.234 71.3867 238.234C69.1211 238.208 67.3763 237.609 66.1523 236.438C64.8633 235.292 64.2188 233.827 64.2188 232.043C64.2188 230.337 64.7786 228.924 65.8984 227.805C67.0182 226.659 68.6589 226.073 70.8203 226.047H76.4648V223.918C76.4909 222.134 75.1042 221.268 72.3047 221.32C71.2891 221.32 70.4883 221.424 69.9023 221.633C69.2904 221.88 68.8086 222.297 68.457 222.883L65.2539 220.441C66.8034 218.41 69.0885 217.421 72.1094 217.473C74.6615 217.447 76.6992 217.928 78.2227 218.918C79.7461 219.934 80.5208 221.678 80.5469 224.152V238H76.4648ZM76.4648 230.871V229.406H71.582C69.2122 229.458 68.0404 230.272 68.0664 231.848C68.0664 232.538 68.3724 233.124 68.9844 233.605C69.5703 234.139 70.5404 234.406 71.8945 234.406C73.6003 234.432 74.8047 234.23 75.5078 233.801C76.1458 233.371 76.4648 232.395 76.4648 230.871ZM85.9375 238V217.727H90.0195V238H85.9375ZM85.9375 213.605V209.523H90.0195V213.605H85.9375ZM105.039 226.398V222.316H115.156V228.117C115.104 230.969 114.128 233.358 112.227 235.285C110.312 237.199 107.904 238.182 105 238.234C102.76 238.182 100.892 237.635 99.3945 236.594C97.8711 235.591 96.7643 234.432 96.0742 233.117C95.8659 232.688 95.6771 232.277 95.5078 231.887C95.3516 231.483 95.2214 230.975 95.1172 230.363C94.9219 229.217 94.8242 227.017 94.8242 223.762C94.8242 220.454 94.9219 218.241 95.1172 217.121C95.3255 216.001 95.6445 215.096 96.0742 214.406C96.7643 213.091 97.8711 211.919 99.3945 210.891C100.892 209.849 102.76 209.315 105 209.289C107.747 209.315 109.987 210.129 111.719 211.73C113.451 213.345 114.544 215.344 115 217.727H110.43C110.078 216.581 109.44 215.604 108.516 214.797C107.552 214.029 106.38 213.632 105 213.605C103.984 213.632 103.112 213.833 102.383 214.211C101.641 214.602 101.042 215.09 100.586 215.676C100.026 216.288 99.6549 217.076 99.4727 218.039C99.2643 219.055 99.1602 220.962 99.1602 223.762C99.1602 226.561 99.2643 228.456 99.4727 229.445C99.6549 230.435 100.026 231.236 100.586 231.848C101.042 232.434 101.641 232.909 102.383 233.273C103.112 233.703 103.984 233.918 105 233.918C106.68 233.918 108.066 233.345 109.16 232.199C110.254 231.105 110.814 229.667 110.84 227.883V226.398H105.039ZM135.566 229.406H122.93C122.93 231.034 123.398 232.271 124.336 233.117C125.208 233.977 126.354 234.406 127.773 234.406C129.427 234.406 130.905 233.749 132.207 232.434L135.156 234.953C133.086 237.167 130.651 238.26 127.852 238.234C126.784 238.234 125.742 238.078 124.727 237.766C124.219 237.596 123.724 237.368 123.242 237.082C122.734 236.835 122.259 236.529 121.816 236.164C120.957 235.409 120.26 234.354 119.727 233C119.141 231.698 118.848 230.005 118.848 227.922C118.848 225.917 119.102 224.25 119.609 222.922C120.117 221.568 120.768 220.5 121.562 219.719C122.37 218.924 123.275 218.352 124.277 218C125.267 217.648 126.243 217.473 127.207 217.473C129.525 217.499 131.484 218.26 133.086 219.758C134.714 221.281 135.54 223.378 135.566 226.047V229.406ZM122.93 226.047H131.484C131.432 224.471 131.009 223.28 130.215 222.473C129.434 221.704 128.431 221.32 127.207 221.32C125.983 221.32 124.98 221.704 124.199 222.473C123.431 223.28 123.008 224.471 122.93 226.047ZM139.844 238V217.727H143.926V219.875H144.004C145.345 218.273 147.103 217.473 149.277 217.473C150.905 217.499 152.324 218.02 153.535 219.035L150.566 222.57C149.707 221.893 148.815 221.555 147.891 221.555C146.849 221.555 145.957 221.893 145.215 222.57C144.382 223.234 143.952 224.309 143.926 225.793V238H139.844Z" fill="white"/>
<path d="M14.688 257.104H34.848V260.144H14.688V257.104ZM14.304 271.76H35.008V274.8H14.304V271.76ZM22.208 275.376L25.024 274.448C25.728 275.6 26.656 277.232 27.104 278.192L24.128 279.312C23.744 278.288 22.88 276.592 22.208 275.376ZM18.688 276.816H22.048V280.72C22.048 281.488 22.208 281.616 23.264 281.616C23.712 281.616 25.792 281.616 26.4 281.616C27.296 281.616 27.456 281.264 27.584 278.928C28.224 279.376 29.6 279.856 30.496 280.048C30.144 283.568 29.28 284.464 26.752 284.464C26.08 284.464 23.488 284.464 22.784 284.464C19.456 284.464 18.688 283.568 18.688 280.752V276.816ZM15.296 276.112L18.208 277.2C17.632 279.344 16.832 281.968 15.648 283.728L12.768 282.064C13.888 280.56 14.816 278.128 15.296 276.112ZM29.088 277.136L31.872 275.92C33.28 277.776 34.752 280.272 35.296 282L32.288 283.344C31.84 281.648 30.496 279.056 29.088 277.136ZM28.48 264.464V267.6H30.784V264.464H28.48ZM23.616 264.464V267.6H25.888V264.464H23.616ZM18.816 264.464V267.6H21.024V264.464H18.816ZM15.872 261.776H33.888V270.288H15.872V261.776ZM22.912 254.736L26.944 254.832C26.592 257.744 26.176 260.784 25.792 262.736L22.208 262.512C22.56 260.368 22.848 257.104 22.912 254.736ZM11.584 261.872L15.008 263.088C12.928 267.44 9.664 272.24 6.688 275.28C6.304 274.448 5.216 272.528 4.576 271.664C7.168 269.264 9.888 265.488 11.584 261.872ZM11.072 254.832L14.496 256.272C12.384 259.312 9.248 262.864 6.592 265.2C6.208 264.368 5.344 262.832 4.8 262.032C7.008 260.176 9.696 257.104 11.072 254.832ZM8.992 268.816L10.784 266.992L12.576 267.568V284.912H8.992V268.816ZM43.936 261.328H59.712V264.688H43.936V261.328ZM44.768 267.728H59.04V270.96H44.768V267.728ZM43.584 274.768H60.256V277.904H43.584V274.768ZM50.016 262.384H53.568V276.432H50.016V262.384ZM54.592 271.984L57.024 270.704C57.984 271.632 59.136 272.976 59.68 273.84L57.12 275.28C56.608 274.384 55.52 272.976 54.592 271.984ZM38.432 256.08H65.472V284.848H61.344V259.6H42.336V284.848H38.432V256.08ZM40.544 279.728H63.232V283.248H40.544V279.728ZM73.056 270.864H95.392V284.752H91.296V273.904H76.96V284.88H73.056V270.864ZM75.008 275.92H92.96V278.704H75.008V275.92ZM84 256.336H95.456V259.632H84V256.336ZM75.008 280.784H92.96V283.856H75.008V280.784ZM82.368 272.176H85.984V282.512H82.368V272.176ZM94.144 256.336H97.824C97.824 256.336 97.792 257.296 97.792 257.744C97.504 264.592 97.152 267.376 96.32 268.4C95.712 269.168 94.976 269.456 94.048 269.584C93.216 269.712 91.84 269.712 90.336 269.68C90.304 268.656 89.888 267.248 89.376 266.384C90.56 266.48 91.648 266.512 92.16 266.48C92.608 266.48 92.896 266.416 93.152 266.128C93.664 265.52 93.952 263.184 94.144 256.912V256.336ZM80.416 254.64L82.816 257.456C79.776 258.608 75.808 259.504 72.448 260.112C72.288 259.344 71.808 258.096 71.424 257.36C74.592 256.688 78.144 255.632 80.416 254.64ZM87.2 257.488H90.752C90.368 263.248 89.344 267.664 84.032 270.32C83.616 269.456 82.656 268.176 81.888 267.536C86.336 265.52 86.912 262.032 87.2 257.488ZM77.056 261.52L80.128 260.304C81.504 262.544 83.008 265.552 83.552 267.536L80.224 268.944C79.744 266.992 78.368 263.888 77.056 261.52ZM71.968 269.904L71.648 266.736L73.12 265.552L80.32 263.952C80.512 264.944 80.832 266.352 81.088 267.152C73.984 268.944 72.736 269.392 71.968 269.904ZM71.968 269.872C71.616 269.104 70.592 267.664 70.016 267.12C70.656 266.544 71.424 265.424 71.424 263.76V257.36H75.168V265.808C75.168 265.808 71.968 268.496 71.968 269.872ZM107.456 265.776H122.208V269.072H107.456V265.776ZM101.728 272.944H130.368V276.496H101.728V272.944ZM113.952 270.928H117.888V280.592C117.888 282.576 117.376 283.6 115.872 284.112C114.368 284.688 112.32 284.752 109.6 284.752C109.344 283.664 108.64 282.032 108.032 281.04C110.08 281.136 112.48 281.136 113.12 281.104C113.76 281.072 113.952 280.944 113.952 280.496V270.928ZM120.96 265.776H121.92L122.72 265.584L125.184 267.504C122.752 269.68 119.36 271.888 115.936 273.232C115.456 272.56 114.496 271.504 113.952 270.928C116.64 269.872 119.648 267.92 120.96 266.448V265.776ZM102.112 259.92H130.016V266.96H126.208V263.312H105.728V266.96H102.112V259.92ZM124.032 255.056L128.032 256.24C126.624 258.288 124.992 260.464 123.712 261.84L120.704 260.72C121.888 259.184 123.296 256.816 124.032 255.056ZM104.8 256.592L108.032 255.12C109.184 256.4 110.464 258.096 110.976 259.344L107.52 260.944C107.072 259.76 105.856 257.904 104.8 256.592ZM113.088 255.792L116.48 254.512C117.504 255.92 118.592 257.872 119.008 259.184L115.36 260.56C115.04 259.28 114.016 257.264 113.088 255.792ZM136.128 255.6H147.552V258.864H136.128V255.6ZM134.56 255.6H137.888V268.464C137.888 273.424 137.568 280.656 135.424 285.136C134.848 284.528 133.376 283.472 132.608 283.12C134.432 278.992 134.56 273.008 134.56 268.496V255.6ZM144.448 261.584H147.424V271.984C147.424 273.264 147.264 274.064 146.464 274.576C145.696 275.024 144.704 275.088 143.36 275.088C143.296 274.256 142.976 273.072 142.592 272.272C143.296 272.272 143.904 272.272 144.128 272.272C144.384 272.272 144.448 272.208 144.448 271.952V261.584ZM140.864 261.584H146.208V264.688H140.864V261.584ZM138.976 284.24L138.496 281.104L139.648 279.952L146.88 276.912C146.944 277.872 147.2 279.248 147.456 279.952C140.8 282.96 139.648 283.6 138.976 284.24ZM138.976 284.24C138.816 283.376 138.336 281.84 137.856 281.008C138.432 280.784 139.04 280.368 139.04 279.216V261.584H142.24V281.968C142.24 281.968 138.976 283.12 138.976 284.24ZM148.384 255.696H162.624V258.928H148.384V255.696ZM153.92 257.456L157.568 257.904C156.8 259.6 155.936 261.36 155.264 262.512L152.512 261.968C153.056 260.656 153.632 258.8 153.92 257.456ZM149.024 260.976H161.92V277.2H158.528V263.824H152.256V277.2H149.024V260.976ZM153.76 265.392H156.96V272.688C156.96 277.04 155.84 282 149.024 284.912C148.608 284.208 147.68 283.088 146.912 282.48C152.896 280.176 153.76 275.888 153.76 272.656V265.392ZM155.488 279.6L157.472 277.52C159.392 278.96 161.952 281.072 163.136 282.448L161.024 284.816C159.872 283.344 157.44 281.136 155.488 279.6ZM166.368 262.544H170.176V284.848H166.368V262.544ZM166.592 256.88L169.376 255.056C170.944 256.656 173.216 258.992 174.304 260.4L171.36 262.512C170.336 261.04 168.16 258.64 166.592 256.88ZM175.072 256.432H192.48V259.984H175.072V256.432ZM189.792 256.432H193.632V280.272C193.632 282.384 193.184 283.408 191.936 284.048C190.656 284.656 188.768 284.72 186.048 284.72C185.92 283.632 185.344 281.936 184.864 280.912C186.496 281.04 188.48 281.008 189.024 281.008C189.6 281.008 189.792 280.784 189.792 280.24V256.432ZM175.744 264.688H185.888V276.912H175.744V273.488H182.176V268.112H175.744V264.688ZM173.824 264.688H177.28V278.704H173.824V264.688Z" fill="white"/>
</svg>
